<mxfile host="app.diagrams.net" modified="2021-12-15T14:45:04.352Z" agent="5.0 (Macintosh; Intel Mac OS X 10_15_7) AppleWebKit/537.36 (KHTML, like Gecko) Chrome/96.0.4664.55 Safari/537.36" etag="l9YggYaTVAZMogFk3oAW" version="15.8.3" type="github">
  <diagram id="C3GyorjxD8sWAv9zKJOV" name="Page-1">
    <mxGraphModel dx="701" dy="479" grid="1" gridSize="10" guides="1" tooltips="1" connect="1" arrows="1" fold="1" page="1" pageScale="1" pageWidth="827" pageHeight="1169" math="0" shadow="0">
      <root>
        <mxCell id="0" />
        <mxCell id="1" parent="0" />
        <mxCell id="yvVbbhkATfIMxO0fHdAz-5" value="Main (path)&lt;br&gt;&lt;br&gt;&lt;br&gt;&lt;br&gt;" style="rounded=0;whiteSpace=wrap;html=1;" vertex="1" parent="1">
          <mxGeometry x="50" y="350" width="540" height="260" as="geometry" />
        </mxCell>
        <mxCell id="yvVbbhkATfIMxO0fHdAz-1" value="Home&lt;br&gt;&lt;font style=&quot;font-size: 9px&quot;&gt;Input + botón para introducir nombre de usuario (context- provider) &amp;lt;login&amp;gt;&lt;/font&gt;" style="rounded=0;whiteSpace=wrap;html=1;" vertex="1" parent="1">
          <mxGeometry x="60" y="470" width="120" height="75" as="geometry" />
        </mxCell>
        <mxCell id="yvVbbhkATfIMxO0fHdAz-2" value="Head &lt;br&gt;(router)&lt;br&gt;(Context consumer {name})" style="rounded=0;whiteSpace=wrap;html=1;" vertex="1" parent="1">
          <mxGeometry x="50" y="360" width="540" height="53" as="geometry" />
        </mxCell>
        <mxCell id="yvVbbhkATfIMxO0fHdAz-4" value="Nav (router)" style="rounded=0;whiteSpace=wrap;html=1;" vertex="1" parent="1">
          <mxGeometry x="414" y="371.5" width="60" height="30" as="geometry" />
        </mxCell>
        <mxCell id="yvVbbhkATfIMxO0fHdAz-6" value="Form&lt;br&gt;&lt;font style=&quot;font-size: 9px&quot;&gt;Formulario de alta de nueva noticia&lt;br&gt;redirección a ListNews&lt;br&gt;&lt;/font&gt;" style="rounded=0;whiteSpace=wrap;html=1;" vertex="1" parent="1">
          <mxGeometry x="190" y="470" width="120" height="75" as="geometry" />
        </mxCell>
        <mxCell id="yvVbbhkATfIMxO0fHdAz-7" value="ListNews&lt;br&gt;&lt;font style=&quot;font-size: 9px&quot;&gt;5 noticias de la API (Axios) &lt;br&gt;+ las que has dado de alta &lt;br&gt;(props)&lt;/font&gt;" style="rounded=0;whiteSpace=wrap;html=1;align=left;" vertex="1" parent="1">
          <mxGeometry x="320" y="470" width="260" height="75" as="geometry" />
        </mxCell>
        <mxCell id="yvVbbhkATfIMxO0fHdAz-9" value="Card&lt;br&gt;&lt;font style=&quot;font-size: 9px&quot;&gt;Cada noticia + borrar&lt;/font&gt;" style="rounded=0;whiteSpace=wrap;html=1;" vertex="1" parent="1">
          <mxGeometry x="450" y="477.5" width="120" height="60" as="geometry" />
        </mxCell>
        <mxCell id="yvVbbhkATfIMxO0fHdAz-10" value="Footer" style="rounded=0;whiteSpace=wrap;html=1;" vertex="1" parent="1">
          <mxGeometry x="50" y="558" width="540" height="40" as="geometry" />
        </mxCell>
      </root>
    </mxGraphModel>
  </diagram>
</mxfile>
